# xmcd
#
# Track frame offsets: 
#        150
#        13981
#        29586
#        40727
#        57686
#        72769
#        90616
#        108146
#        125268
#        140674
#        156372
#        169809
#        183974
#        199008
#        215886
#
# Disc length: 3126 seconds
#
# Revision: 1
# Processed by: cddbd v1.5.2PL0 Copyright (c) Steve Scherf et al.
# Submitted via: ExactAudioCopy v1.3
#
DISCID=dd0c340f
DTITLE=ΚΙΑΜΟΣ ΠΑΝΟΣ - ΚΙΑΜΟΣ
DYEAR=1900
DGENRE=
TTITLE0=ΒΡΕΣ ΛΙΓΟ ΧΡΟΝΟ
TTITLE1=εισαι η γυναικα της ζωης μου
TTITLE2=ΘΑ ΜΕ ΠΑΣ ΣΤΟ ΤΡΕΛΑΔΙΚΟ
TTITLE3=ΠΟΥ ΝΑ ΠΑΩ
TTITLE4=ΕΣΥ ΜΟΝΟ ΕΣΥ
TTITLE5=ΔΥΟ ΞΕΝΟΙ
TTITLE6=ΟΛΑ ΓΙΑ ΣΕΝΑΝΕ ΜΙΛΑΝΕ
TTITLE7=ΔΡΟΜΟΙ ΣΤΗ ΣΤΑΧΤΗ
TTITLE8=ΕΓΩ ΘΑ ΜΑΙ ΓΙΑ ΣΕΝΑ
TTITLE9=ΤΟ ΓΕΛΙΟ ΣΟΥ ΚΛΑΙΕΙ
TTITLE10=Η ΑΓΑΠΗ ΘΕΛΕΙ ΠΡΑΞΕΙΣ
TTITLE11=ΜΙΚΡΗ ΤΡΕΛΗ
TTITLE12=ΑΓΙΟ ΦΥΛΑΧΤΟ ΜΟΥ
TTITLE13=ΠΟΙΟΙ ΜΑΣ ΓΕΛΑΣΑΝΕ
TTITLE14=ΤΗΣ ΝΥΧΤΑΣ ΟΝΕΙΡΟ
EXTD=
EXTT0=
EXTT1=
EXTT2=
EXTT3=
EXTT4=
EXTT5=
EXTT6=
EXTT7=
EXTT8=
EXTT9=
EXTT10=
EXTT11=
EXTT12=
EXTT13=
EXTT14=
PLAYORDER=
